<?xml version="1.0" encoding="UTF-8"?><svg id="b" xmlns="http://www.w3.org/2000/svg" viewBox="0 0 1046.7 1046.5"><g id="c"><path d="M499,.5C249.1,11.2,39.6,202.8,5.2,449.7c-47.9,343.9,243.8,637.1,587.9,592.1,222.8-29.1,405-202.6,445-423.5C1098.3,285.6,836.1-13.9,499,.5ZM462.4,1038.4c-228.6-26.2-415.1-205.2-451.2-432.1C-37.9,297.3,193.1,16.2,505,4.8c260.3-9.5,489.9,178.5,530.5,435.4,54,341.3-230.3,637.5-573.2,598.2Z" style="fill:#fe4900;"/><path d="M757.9,426.7c50.4,47.2,27.4,147.1-47.7,152.5-46,3.3-95.7-2.5-142.1,0-8.2,0-24.8,14.4-24.8,22v185.9h94.5v-121.3c62.4,1.1,122.3,3.8,174.1-36.1,91.4-70.1,90-201.6,1.8-273.8-23-18.8-72-44.5-101.2-30l-341.5,263.5c-13.5,8-67.2,7.3-81.8,1.4-14.6-5.8-22.7-17.6-25-33,2.5-40.1-3.7-85.1,0-124.7,2.1-22.5,20.9-38.7,42.9-40.3,14.4-1.1,51.2-1.6,63.7,3.1,26,9.6,19.9,41.2,50.2,43.3,9.9.7,30.6.8,40.5,0,11-.8,22.9-11.6,26.2-21.9,5.7-18-8.1-44.5-17.9-59.6-39.1-59.8-100.4-66.6-166.9-62.8-74.3,4.2-133.1,68.4-136.5,141.7-1.7,36.7-1.7,82.1,0,118.8,3.1,67.3,51.2,123.1,117.8,134.5,21.4,3.7,73.2,4.3,94-.9,9.7-2.4,16.2-7.6,24.4-12.9l337-260.3c3.5-1.5,15.6,8.1,18.6,10.9Z" style="fill:#fe4900;"/><path d="M77.2,458.9l-44.5-9.3,34.7-16.5-25.1-28.1,45.9,8.7.9-3.5-52.9-10.4c-1.2,3.4.5,4.8,2.6,7.3,6,7.3,17.6,16.3,22.5,23.4.5.7,1.2.9.9,2.2l-34.9,15.6-1.5,4.4,51.6,10.3c1.9-1.2,1.8-3.3-.2-4Z" style="fill:#fe4900;"/><path d="M969.8,577c-.9.5-1.2,2.5-.8,3.1,1.3,2,44.9,6.5,45.9,9.1l-34.7,17.3,26.9,28.2-46.8-8.7c.4,1-1,3.3-.9,3.5,1.9,1.9,46.5,7.4,52.9,9.5v-3.9c-2-3.9-27.7-26.7-26-29l34.1-15.6,1.5-4.4c-6.5.3-49.8-10.5-52-9.1Z" style="fill:#fe4900;"/><path d="M311.5,918.9c-2.6-.3-10.9,1.1-11.7.5-1.2-.8-3-10.3-3.9-10-5.7,1.6,2.1,9.8.3,12.8-.4.8-12.6,8.1-12,11,.2.9,1.4,1.5,2.6.9,1.3-.6,9.7-10.5,11.3-9.1l6.1,20.8c-6.6,0-14.4-.7-18.6,5.3-9.2,13.2,12.3,25.9,21.6,14.7,4.2-5.1,3.1-10.5,2.1-16.5,25.5,1.6,26.1-27.8,2.2-30.3ZM287.8,954.1c.6-1.1,4.6-4.9,5.5-4.9h12.6c0,2.5,1,4.8.9,7.4-.1,17.2-25.3,9.7-19-2.5ZM322.9,942c-2.3,2.3-13.2,6-15.1,3.6l-7.1-22.3c10.8-6.7,33.9,7.3,22.2,18.8Z" style="fill:#fe4900;"/><path d="M753.2,129.7c2,1.6.9,11.2,6,10,.7-2.6-3.5-10.3-2.5-12,.7-1.2,12-6.6,12-11-1-1-1.1-1.7-2.6-.9-2.6,1.3-6.4,7.7-10,9.1-1.6,0-5.7-18.3-7.4-20.8,10.8,2.3,28.4-5.5,19.4-18.1-10.4-14.8-30.8-2.3-23.8,14.7-35.9-.1-18.9,37.9,8.7,29ZM748,87.5c4.6-8.9,24.1-2.6,17.6,8.9-3.4,6-11.8,4.3-17.6,4.3-.9-4.1-2-9.4,0-13.2ZM729.9,108.3c2.5-3,12.3-6.7,15.4-4.8,1,.7,6,20.3,7.1,23.3-10.7,5.1-32.6-6.2-22.4-18.5Z" style="fill:#fe4900;"/><path d="M488.5,73.7c6.7,1.2,16-1.6,21.4,4.6,11.1,12.9-17.5,24.4-26.8,11.2-.7-1-2.5-7.5-4.8-5.2-1.1,1.1,1.2,6.3,2.2,7.7,5.6,7.6,19.2,7.5,27,3.7,12.3-6.1,9.6-22.2-4.1-23.6l6.9-5.6c4.6-6.4,4.7-13.9.7-20.7-.7-1.3-3.1-3-3.3-3.7-.3-1.5,4.7-4.9,4.3-7.2-3.5-2.7-5.5,5.2-6.6,5.2-.9,0-5.1-2.4-7.7-2.7-26.9-2.8-29.1,32.5-9.3,36.2ZM490.3,41.2c7.5-1.3,16.1.2,19.1,8.2,5.4,14.3-8.1,25.3-21.5,20.6-13.9-4.9-11.4-26.5,2.4-28.8Z" style="fill:#fe4900;"/><path d="M545.5,969.2c-16.7-12.3,18.2-28.1,26.1-11.3,1.2,2.5-1.3,4.2,3.9,3.5-1.1-17.1-27.8-17.8-35.4-5.5-4.9,8,.7,17,9.4,17.6.2,1.2.2,1.1-.6,1.8-2,1.9-4.5,2.9-6.2,5.7-3.1,5-3.4,11.1-1.2,16.5,1,2.5,4.2,5,4.4,6.1.6,2.3-5.8,7.3-2.1,8.1,2.2.5,3.4-4.7,5.3-5,1.2-.2,3.5,1.4,5.2,1.5,16.3,1.4,30-9.4,22.8-26.3-6.7-15.7-22.7-6.1-31.5-12.7ZM543.3,989.6c.2-6.3,5.8-13,12-14.1,10.2-1.7,19.4,2,20.2,13.2,1.5,21.4-32.7,22.8-32.1.9Z" style="fill:#fe4900;"/><path d="M304.4,128.5c8.1-.6,19.9-11.6,27-2.6,8.7,11-12.5,25.7-23.7,18.4-1.7-1.1-1.9-2.6-2.8-3.3-.9-.7-3.9.3-1.8,3.6,8.2,12.7,39.9-1.1,32.3-18.4-3-6.9-9.1-6.7-15.7-6.4,6.4-7.1,5.7-17.1-.8-23.9-2-2.1-7.5-4.4-7.8-4.8-.8-1.1,2.2-7.3,1.7-7.7-5.6-2.1-3.5,6.1-4.3,6.9-.2.2-4-.1-5.4.2-26.7,6-19.1,39.3,1.4,37.9ZM302.2,94.1c20-3.5,25.2,22.2,8.6,29.4-22.6,9.8-30.8-25.6-8.6-29.4Z" style="fill:#fe4900;"/><path d="M747.6,914.7c-7.7.9-17.8,10.8-25.3,3.5-10.4-10.2,10-26,21.9-20.2,1.4.7,4.9,5,6.3,3.6.8-.8-.6-2.7-1.3-3.5-9.6-12.7-40.4,3.5-31.6,19.4,3.4,6.1,9.2,6.2,15.5,5.8-5.9,6.9-5.5,16.7.5,23.3,1.8,2,7.7,4.7,8.1,5.8.5,1.6-1.6,6.4-.8,7.2.2.2,2.1.2,2.7-.5.9-1.3.3-5.1,1.6-6,.9-.6,8.3-1.5,11-2.8,19-9,11.2-37.9-8.7-35.6ZM755.1,947.4c-23.1,11.3-32.2-25.2-9.2-29.1,18.3-3.1,25.5,21.1,9.2,29.1Z" style="fill:#fe4900;"/><path d="M423.7,70.8c2.4-17.8-10-34-28.7-32.2-4.2.4-16.3,3.4-20.2,5-.8.3-1.8.3-2.1,1.4l14.4,50.5c14.3-3,34.3-7.1,36.7-24.7ZM396.5,41.8c24.4-1.1,33.3,33.6,11.4,44.4-2.3,1.2-18.7,5.9-19.6,5l-11.3-45c6.5-.2,13.2-4.1,19.5-4.3Z" style="fill:#fe4900;"/><path d="M632.4,989.8c8.9,22.5,31.9,15.8,49.7,9.7l-14.7-51.1c-22,3.9-45.6,14.5-34.9,41.4ZM633.6,981.7c-2.3-20,14.9-25.7,31.1-28.9l12.9,43.8c-16.4,9.4-41.3,8.2-44-14.9Z" style="fill:#fe4900;"/><path d="M244.7,874.7c-.9,0-9.9,12.5-12.1,13.6-11-7.9-25.4-26.2-39-11-15.5,17.4,6.8,29,17.7,39.4l2.5.3c2.5-6,33.4-37.5,33-40.1,0-.5-1.9-2.3-2.1-2.3ZM213.1,912.9c-1.3.3-1.4-.3-2.2-.8-3.2-2.2-14.5-12-16.4-14.8-4.5-6.8-2.3-15.3,4.4-19.7,12.6-8.3,22.4,7.5,31.5,14.2l-17.3,21.2Z" style="fill:#fe4900;"/><path d="M807.3,176.2c.9,0,11-11.8,11.7-13.8h1.3c10.1,9.2,24.5,26.3,38.2,12.2,16.6-17.1-7.3-30.2-18.2-40.7l-34.9,40.3c0,.3,1.8,2.1,2,2.1ZM840.4,139c10.5,7.7,31,21.8,13.7,34.6-12.3,9.1-22.9-6.8-31.6-13.5l17.8-21Z" style="fill:#fe4900;"/><path d="M139.4,769.9c.6-2.1,5.7-3,6.1-4.8.4-1.8-2.1-2.8-3.2-1.5l-41.8,30.1c1,1.3,1.1,1.4,2.7,1,2.1-.6,16.6-12.6,17.3-11.8-4.2,17.6,12.4,32.4,28.9,22.4,17-10.3,9.7-35.7-9.8-35.4ZM127.8,801c-10.5-10.2-3.1-26.8,10.6-28.3,6.6-.7,13.3,3.5,16,9.6,6.9,15.8-14.2,30.6-26.5,18.7Z" style="fill:#fe4900;"/><path d="M895.4,274.4c3.5,5.2,9.1,8.3,15.5,8.4-1.8,2.7-7.3,2.7-5.2,6.9l45.1-28.6c-.2-1.1-.4-4-2.1-3.3-2.1.8-17.8,13-18.7,12,2.2-7,.6-15.2-4.6-20.5-15.4-15.4-43.3,5-29.9,25.1ZM898.4,254.2c2-2.8,7.2-6.2,10.5-6.8,15.9-3,26.6,17.5,12.6,28.2-15.8,12.2-34-6.8-23.2-21.5Z" style="fill:#fe4900;"/><path d="M48.2,505.7c-2.1.5-6.4,4.7-7.1,6.8-3.7,11.1,6.9,20.3,17.1,15.4,13.1-6.4,5.5-26.1-10-22.1Z" style="fill:#fe4900;"/><path d="M987,517.8c-4.2.6-9.1,4.9-10,9.1-2.1,10,7,16.7,16.5,13.9,2.9-.9,9.3-9.4,8.3-13.1-1.4-4.8-9.5-10.7-14.8-10Z" style="fill:#fe4900;"/><path d="M637,82.6l-.9,6.9c.9-.1,2.8.3,3.4,0,1.4-1.2,6-31.4,7.9-35.7,0-.7-2.3-1.8-3.1-.6-1.2,1.9-.3,5.8-2.2,6.9-4-13.6-24.2-16.7-32.5-5.1-13.8,19.4,8.2,41.7,27.2,27.7ZM620.3,51.6c12.7-2.3,21.9,5.2,20.1,18.4-1.6,12.1-14.6,17.4-24.8,11.1-10.8-6.7-7.6-27.2,4.7-29.4Z" style="fill:#fe4900;"/><path d="M954.5,383.5c1.4.7,5.8.9,1.9,2.4-.9.4-5.4,1.4-5.6,1.8,0,.1.8,2.4.9,2.5,1.4,1.1,29.6-10.7,34-11.4l1.5-3.3-7.8,1.7c11.1-17.6-6-37.5-25.4-27.6-14.3,7.3-13,26.7.5,33.8ZM969.6,380.9c-23.7,8.8-31.6-26.4-8.6-30.3,19.3-3.3,26.9,23.5,8.6,30.3Z" style="fill:#fe4900;"/><path d="M104,680c-2.4-6.4-7.1-9.6-13.2-12l6.9-2.2-1.3-3.4-35.1,12.9c.2,5.7,7.7.1,8.7.9-4.8,6.2-4.5,13.8-1,20.5,10.1,19.5,43.8,6.9,35-16.8ZM93.5,701c-23.3,12-35-25.9-9.8-29.7,18.5-2.8,25.8,21.5,9.8,29.7Z" style="fill:#fe4900;"/><path d="M975.6,660.5c-18.5-11.6-37.6,7.5-27.5,26.2-3.7.7-7.1-4.3-6.9,1.7,11.2,2.7,23.4,9.5,34.3,12.1,1.9.4,1.5-2.6,1.1-3.3-.6-.9-5.5-.8-5.9-2.7,15.3-4.5,19.1-25.1,4.9-34ZM980.1,682.6c-6.9,19-39.9,7.7-30.1-13.6,1.5-3.2,5.7-7.4,9.2-8.1,13.6-2.8,26,7.5,20.9,21.7Z" style="fill:#fe4900;"/><path d="M99.9,375.5c5-7,5.2-15,1.4-22.5l6.9,1.7c-.1-1,.3-2.6-.1-3.3l-35.4-12.3c-.9,4.6,4.5,3.1,6.1,6.1-8.7,1.2-14.3,11.2-13.9,19.5.7,16.5,25.2,24.7,35.1,10.8ZM82,347.1c2.7-.3,5.9.6,8.5,1.5,20.6,7.7,8.3,38.5-13.2,28.8-14.8-6.7-10.6-28.8,4.7-30.3Z" style="fill:#fe4900;"/><path d="M417.7,964.9c-.5.4-.7,1.8-1.7,1.7-.6-1.5.7-2.6.9-3.5.2-.7,1-4.2.9-4.3-.1-.1-2.6-.1-3.5-.9l-7.8,37.3,3.5.9,1.3-7.8c11.7,21.7,41,12,36.6-13.2-2.2-12.7-20.5-18-30.1-10.2ZM420,994.2c-12.9-8.2-6-30.6,9.4-30.2,3.2,0,9.1,2.5,11.4,4.7,12.3,11.7-2.5,37.2-20.8,25.6Z" style="fill:#fe4900;"/><path d="M871.9,813.6c.3,3.5.7,2.4,3.3.9-2.5-14.3,11.9-25.7,25.3-17.8,1,1.4-20.3,24.5-20.7,27.4-.2,1.5,4.9,4.3,6.2,4.8,18.2,6.9,34-16.7,20.2-31.4-13.8-14.7-35.8-3.4-34.3,16.1ZM890.6,827c-1.8-.2-7.5-1.7-6.2-4.3,6.3-6.1,11.5-16.6,17.4-22.5.6-.6,1.2-1.6,2.1-.9.2.2,2.8,4.6,3.1,5.2,4.8,11-4.6,23.9-16.4,22.5Z" style="fill:#fe4900;"/><path d="M146.8,244.6c11.5,9.9,27.7,4.7,32.1-9.5.9-3,2.3-10.9-2.2-9.6,1,15-11.7,26.4-26,18.2l21.7-27.3c-18.9-18.9-45.5,10.8-25.5,28.1ZM161.3,213.6c2.5.4,7.2,2,5.4,5l-17.8,22.5c-.6.5-1.2,0-1.8-.5-10.3-10.8-.2-29.2,14.2-27Z" style="fill:#fe4900;"/><path d="M860.9,229.6c16.5,16.5,43.6-6.4,30-25.3-16.6-23.1-49.5,5.7-30,25.3ZM870.8,199.8c19.1-4,27.9,19.5,12.3,29.7-14.1,9.2-32.1-8.1-21.5-23.2,1.6-2.3,6.5-5.9,9.2-6.4Z" style="fill:#fe4900;"/><path d="M191.8,848.7c11.6-14.3-.7-34.7-17.9-31.8-6.8,1.1-13.6,7.3-15.8,13.7-6.8,20,20,35,33.7,18.1ZM161.5,830.5c1.8-4.7,7.4-9.4,12.3-10.2,14.6-2.5,25,13.2,15.8,25.4-12,16.1-34.9,2.2-28.2-15.2Z" style="fill:#fe4900;"/><path d="M140.7,288.8l-14.3-9.1c.9-2,21-5.7,24.5-7.5,1.8-.9,2.5-2.4,3.2-4.1l-27.7,7.8-5.7-26c-.8,1.1-1.7,3-1.7,4.4,0,3.8,5.3,21.4,3.9,23.3-7.8-3.6-17.7-13.1-25.2-16-1.7-.7-2.2-.7-3.4.9l43.9,28.9c.9.2,3.1-1.6,2.5-2.5Z" style="fill:#fe4900;"/><path d="M911.4,749.1c-.9.8-1.8,1.2-.9,2.6,1,1.6,10,6,12.3,7.6.6.4,2.5.6,1.1,1.9-1.1,1-20.8,5.3-23.9,6.9-4.8,4.2-4.5,4.8,1.4,3.1,7.4-2.1,14.9-4.6,22.1-7.3,1,.5,1,1.3,1.3,2.2,2.2,6.9,3,16.5,4.4,23.8,2.4.7,2.7-3.1,2.6-4.7-.2-3.7-5.4-21.6-4.4-23,7.9,3.7,18.3,13.3,26,16.1,2.7,1,3.9-1.5,3.4-2.1l-45.4-27Z" style="fill:#fe4900;"/><path d="M66.1,646.7c8.2-5.3.6-23.9,6.2-28.5,4.5-3.7,9.5.9,11.3,5.2,2.4,5.6,2.3,9.8.7,15.4-.7,2.6-3.3,2.9.2,5.3,7.8-6.6,3.8-29.1-6.9-30.4-17.4-2-7.2,25.8-12.6,29.9-7.7,5.7-12.9-8.1-13-13.8,0-3,2.1-7.3,1.9-8.5,0-.5-2.5-1.5-2.7-1.4-1.8,1.4-2,12.3-1.5,15,1.2,7.5,8.5,17,16.6,11.8Z" style="fill:#fe4900;"/><path d="M978.3,431.2c-.9,5.2-6,6.6-10.2,3.6-3.3-2.3-5.4-10-5.3-13.8,0-3.5,2.7-7.9,2.7-9.6,0-1.4-1.7-2.8-2.6-2.1-.3.2-2.4,6.4-2.5,7.4-1.3,9.1,1.9,24.8,14,22.7,11.2-1.9,5.9-20.2,8-27.6.5-1.6,3-3,4.5-3.1,8.6-.7,12,18.2,7.2,24l3.5.9c4.3-9.5,1-29.8-12.5-27.7-9.7,1.5-5.6,18.5-6.8,25.3Z" style="fill:#fe4900;"/><path d="M798.4,877.8c0,1.9,14.8,17,15.2,24.5.6,11.1-13.5,20.3-22.7,11.4-4.4-4.2-10.1-16.2-13.9-19.1-1.9-1.5-3.8-.2-2,3,2.4,4.3,12.8,18.4,16.5,20.7,11.1,7.1,24.4-2.9,24.9-14.9l3.9,4.3,2.1-2-22-30c-.5.6-2,1.6-2,2.1Z" style="fill:#fe4900;"/><path d="M251.7,166.6c.3,0,2.3-1.9,2.1-2.9-.2-1.1-10.3-13.7-11.9-16.8-3.9-7.5-3.2-14.7,4.2-19.7,14.6-9.7,22.5,12.1,29.5,21.1,1.3.7,3.7-.5,3.4-2-6.3-6.1-12.6-22.2-21.6-24.3-10.3-2.4-20.7,6.7-20.9,17-2.4-1.5-3.6-6.8-6.9-3,3.9,2.9,20.2,30.7,22.1,30.8Z" style="fill:#fe4900;"/><path d="M175.8,183.5c0,1-7.3,5.1-4.3,6.9,2.3,1.4,5.4-4.8,6.5-4.8s16.4,18.1,21.5,20.1c5.3,2.2,13.7-2.7,14.4-7.8.3-1.7-1.3-3.8-2.5-2.8-.1.1-.4,2.3-1.3,3.4-2.9,3.5-4.9,5.7-9.7,3.7-1.2-.5-19-17.6-19.2-19,.2-2.3,8.6-8.5,8.6-9.4,0-.2-2-2.1-2.2-2.2-.6,0-7.2,7.8-8.8,8.6-1.7.3-7.7-7.7-8.5-7.7-.2,0-2,1.8-2.1,2.3-.3,1.7,7.7,7.7,7.7,8.5Z" style="fill:#fe4900;"/><path d="M926.6,329c1.2,1.8,8.7,9,10.3,7.5,0,0,.7-2.3.5-2.6-1.9-2.6-6.6-2.6-9.3-8.9-9.9-22.8,27.4-33.4,31.2-9.5.8,4.9-3.1,9.2,2.8,8,1-8.2-.2-15.8-7-21.2-16.6-13.1-41,7.3-28.4,26.6Z" style="fill:#fe4900;"/><path d="M116,752.1c13.7-6.5,13.8-24.6,2.1-33.4-.6-.5-4.1-2.6-4.3-2.6-.9,0-1.8,2.6-1.3,3.4.1.2,2.4.5,3.4,1.4,22.1,18.2-9.6,43.2-22.9,22.9-2.1-3.2-2.3-6.3-2.3-10,0-3.5,2.6-4-2.5-4.7-4.4,17.3,11.1,31,27.8,23Z" style="fill:#fe4900;"/><path d="M876.2,856.5c3-.7,6.8-5,3-6.9-2.2,1.2-3.2,5.8-5.9,5.1-1.6-.4-11.1-11.2-13.6-13.3-5.1-4.4-10.1-9.5-16.8-4.6-1.4,1-5.8,7.1-5.7,8.1,0,.9,2.6,1.8,3.4,1.3,1.5-1,1.1-9.5,9.8-7.6,4,.9,16,15.5,20.5,18.6,1.4,2.4-11.6,10.4-6.4,11.5,1.6.3,7.7-7.4,9.5-8.6l7.8,7.8c.8-.9,3.2-2.2,1.6-3.5-1.2-1-8.4-6.1-7.2-7.7Z" style="fill:#fe4900;"/><path d="M1001.4,464.7c-11.7,2.6-36.7-2.6-31.8,16.4.6,2.2,3.8,7.2,4.6,3.2.4-2.1-6.5-8.9.9-12.9,5.8-3.2,21.5-1.8,28.5-4l.9,13h3.5s-1.7-13-1.7-13c1.4-2,12.8,1.2,11.3-4.4l-11.2.8-.9-7.7c-7.4-2,.3,7.2-4,8.6Z" style="fill:#fe4900;"/><path d="M78.5,573.8c-.5-2.7-4.1-9-5-4.5-.3,1.7,5.3,7.8.9,12.1-3.5,3.4-24.6,3.9-30.3,4.8l-.9-12.1h-3.5s1.7,13,1.7,13c-2,.5-11.9.1-11.3,3,1.8,3.3,10.8-.9,12.1.4.3.3-.5,5.6.8,7.3,3.2,4.3,3-5.8,1.8-8.2,11.2-3.2,36.6,2.1,33.6-15.8Z" style="fill:#fe4900;"/><path d="M572.8,42.7c-.6,6.3-2.2,13.3-2.6,19.5-.6,10-.8,17.7,11.7,16.9,2.5-.2,7.6-1.6,3.9-3.9-.6-.4-8.7,3.1-11.7-1.3-3.4-5,2.5-23.6,1.3-30.3l13.4.9c3.1-5.4-10.9-2.8-12.5-4.4l.8-11.2c-5.9-1.3-2.3,9.2-4.3,11.3-.3.3-5.9-1.9-7.8-.9-1.1,4,4.6,3.3,7.8,3.5Z" style="fill:#fe4900;"/><path d="M481.8,1004.7c-.8-8.3,6.2-29.3-1.3-34.7-2.5-1.8-12.1-2.5-13.5-.8-.5.5.2,3.2,1.3,3.3,2.7.4,9.6-4.9,12,2.9,1,9.2-1.5,19.1-2,28.4l-12.6-.9c-2.7,5.8,10.6,2.5,12.6,4.3l-.9,10.7c5.2,2.9,2.2-8.9,4.3-10.4,1.3-.9,6.8,1.5,7.8.5,3-2.8-5.9-4.5-7.8-3.5Z" style="fill:#fe4900;"/><path d="M931.4,714.3c9.9,4,31.6,12,23.6,26.4-1.4,2.6-4.5,2.6-2.5,6.6,7.6-4,9.1-13.9,4.3-20.8l6.5,2.6,1.3-2.2-32.4-16.2c-2.5-1.5-3.3,2.5-.9,3.5Z" style="fill:#fe4900;"/><path d="M120.3,326.1c-10.3-3.4-33.1-12.6-25-27.2,1.2-2.2,5.5-3.8,2.1-6.6-7,5.3-8.8,13.3-3.9,20.8-1.3,1.1-7.1-5.5-7.8-.4l32.7,16.8c1.5.8,2.2-3.1,2-3.3Z" style="fill:#fe4900;"/><polygon points="682.1 47.1 678.5 47.6 662.1 97.3 665.6 98.2 682.1 47.1" style="fill:#fe4900;"/><path d="M387.4,951l-14.8,51.1,3-.9c.8-6.4,17.1-48.4,15.2-50.2-.1-.1-3.3,0-3.4,0Z" style="fill:#fe4900;"/><path d="M513,973.1l.4,36c2.1.7,1.8.3,2.1-1.3,2.5-11.3,0-25.2.9-36.8-2.1-.2-3.1,0-3.5,2.2Z" style="fill:#fe4900;"/><path d="M230.9,184c1.1-.2,1.9-2.4.9-3.5-3.4-2.9-22-27.3-24.3-26.9-3,.6.6,4.7,1.3,5.6,3.3,2.4,20.4,25,22.1,24.7Z" style="fill:#fe4900;"/><path d="M446.3,44.9c.6,8.3,3.2,24.9,5.2,33,1.2,4.6,3.7,3.3,3.5-.8-.5-10.8-5.1-23.2-5.2-34.3-3,0-3.7-1-3.5,2.1Z" style="fill:#fe4900;"/><path d="M540.8,74.8l.9-37.3c-2.1-.2-3.1,0-3.5,2.2,1.4,4.4-2.1,33.9-.9,35.1.2.2,2.6-.1,3.5,0Z" style="fill:#fe4900;"/><path d="M608.2,1000.9l-6-34.5-3.3-1.5c.7,4.4,4.5,36.2,6.1,37.3.7.4,3.1,0,3.3-1.3Z" style="fill:#fe4900;"/><path d="M845.5,884.3c-5.2-6.7-13.2-15.4-19.1-21.7-1.8-1.9-6.3-7.4-6.1-1.7l23,26.5,3.4-.5c.4-1.5-.6-1.7-1.3-2.6Z" style="fill:#fe4900;"/><path d="M201,142.8c-3.5-2.1-5.7,2.4-4.2,4.7,2.2,3.5,8.5-2.1,4.2-4.7Z" style="fill:#fe4900;"/><path d="M543.2,27.9c1.5-2.3-.7-6.8-4.2-4.7-4.3,2.6,2,8.2,4.2,4.7Z" style="fill:#fe4900;"/><path d="M511.4,1022.8c1.5,2.4,7.2,0,5.6-3.3-1.9-3.8-8-.7-5.6,3.3Z" style="fill:#fe4900;"/><path d="M852.6,893c-3.9,1-2.2,6.8,1.4,5.9,3.9-1,2.2-6.8-1.4-5.9Z" style="fill:#fe4900;"/><path d="M443.8,33.9c2.4,1.5,7-1.2,4.7-4.3-3-4.1-7.8,2.4-4.7,4.3Z" style="fill:#fe4900;"/><path d="M606.2,1011.6c-1.9,2.6,1.7,7,4.6,4.2,2.7-2.6-2.4-7.2-4.6-4.2Z" style="fill:#fe4900;"/><path d="M416.7,965.1c.2-.4.5-.6.9-.2l-.9-1.7c.2.7.1,1.3,0,2Z" style="fill:#fe4900;"/></g></svg>