<?xml version="1.0" encoding="UTF-8"?><svg id="b" xmlns="http://www.w3.org/2000/svg" viewBox="0 0 1054.8 271.2"><g id="c"><path d="M293.5,154c-21.7,1.8-45.6-1.3-67.5,0-3.4-.1-11.3,7.7-11.3,10.3v87.8h43.7c0,0,1.4-1.3,1.4-1.4v-56.3c12.2-.7,25.3.9,37.4,0,62.6-4.6,98.5-73.8,62.9-126.7-13.1-19.5-40.6-41.1-65.3-33.3l-160.8,123.9c-6.9,3.8-23.4,3.6-31.4,2.9-8.9-.8-18-6.4-19.3-15.9-2.5-18.5,1.7-42.1,0-61.2,2.3-20.8,28.7-20.2,44.4-18.2,17.9,2.3,13.3,15.5,23.9,20.2,6.8,3,24.1,3.2,30.6-.5,13.5-7.7,4.9-25.5-1.2-35.2-18.6-29.7-49.3-33.1-82-30.7-29.1,2.1-58.2,29.2-61.5,58.4-1.8,16.2-2,57.3,0,73.4,6.2,49.1,63.6,65.2,105,52.2l164-126.2c4.2-2.4,10.7,4.9,13.3,8.1,19.5,24.3,7.1,65.7-26.1,68.4Z" style="fill:#fd5411;"/><path d="M7.4,109v-48.2C7.4,34.2,40.7,3.6,67.3,3.7h920.3c24.7,2.1,47.4,18.8,56.1,42.1,7.1,19,2.5,41.1,3.8,61,.4,2.2,1.4,2.5,3.6,2.3v-50c0-27.1-36.3-59.7-63.6-59H69.1C39.8-.6,3.8,31.4,3.8,60.8v48.2c0,.2,3.6.2,3.6,0Z" style="fill:#fd5513;"/><path d="M1047.2,211.9c-3.3,28.9-29.9,53.5-58.8,55.7H65.5c-26-.6-58.1-31.2-58.1-57.2v-40.1c-.6.1-3.6-.2-3.6,0v40.1c0,28.8,34.7,61,63.5,60.8h922.1c26.8-.2,61.8-32.3,61.8-59v-41.9l-2.8.4c-2.4,13.2.4,27.7-1.1,41.2Z" style="fill:#fd5715;"/><path d="M540.9,212.1c2.4-.9,8.3-5.9,9.3-5.7,2.1.4,6.1,8.1,8.7,6.7.3-.1,1.8-1.7,1.8-1.8,0-.9-8-6.6-8.1-9,0-2.2,7.7-14.4,5.4-16.7-3-3-4.2,6.2-4.7,7.5-.5,1.2-3.1,6.9-3.9,6.9-3.8-4.9-11.5-9.9-14.9-14.8-.5-.8-1.3-.9-.9-2.3,6.6-2.1,14.3-7.4,14.5-14.9.4-18-29.9-15.3-28,2.6.6,5.1,4.6,8.6,6.3,13.1-25.3,10.8-10.6,38.1,14.4,28.4ZM525.3,174.7c-3-6.5-1.1-13.6,6.4-15,11.2-2.1,17.7,7.7,9.3,15.6-1.4,1.3-8.7,6-10.3,5.7-1.4-.3-4.8-4.8-5.4-6.3ZM521.1,190.5c.9-.9,6.8-4.9,7.7-4.9,2.3,0,15.4,15.3,18.4,17.6-5.2,7.9-20.9,10.8-27.6,3.7-4.4-4.6-2.7-12.3,1.5-16.4Z" style="fill:#fd5513;"/><path d="M446.3,114.4v-56.7l-3.6.4c-3.9,3.3-21.9,32.4-23.9,32.9-2.1.6-22-29.4-25-33.1l-4.3-.2v56.7c0,.2,3.6.2,3.6,0v-50.4l24.8,33.3,23-31,2.7-1.4v49.5h2.7Z" style="fill:#fd5513;"/><path d="M761.6,123.9c0-7.3-4.5-8.9-9.5-11.9-3.2-2,2.6-3.4,4.7-5.6,4.7-4.8,5.9-11.6,4.5-18.1-.6-2.8-5.1-8.4-4.9-9.3.2-1.2,6.2-5,4.4-6.9-1.9-1.9-6.6,5.2-7.6,5.2-.3,0-2.2-1.5-3.4-1.9-31-9.1-37.8,29.4-17.1,36,7.2,2.3,18-.3,23.1,6.6,11.4,15.3-21.3,24.3-29.1,10.2-.5-1-2-8.4-4.6-5.7-.3.4.1,3.6.4,4.6,4.2,16.6,39.1,15,39.1-3.2ZM733.3,108.2c-13.8-5.4-11.2-27.6,3-30.5,8.1-1.6,18.7,1.1,21.3,9.9,4.5,15.5-10.1,26.1-24.2,20.6Z" style="fill:#fd5513;"/><path d="M908.5,88.1c-.6-2.8-4.9-7.8-5-8.3-.2-1.9,5.1-5.7,5.2-6.3,0-1.1-2.1-1.6-3.6-.9-1.6.8-3.2,4.8-4,4.8-.4,0-6.3-2.9-8.3-3.3-28.2-4.4-34,34.4-8.7,38.4,6.5,1,17.2-.4,20.4,7.5,6.8,16.6-25.9,20.2-31.1,7.7-1.5-3.7,1.2-6.1-4.3-5.2.4,14.5,16.6,18.6,28.7,14.7,12.2-4,15.2-16.9,4.1-24.5-1.8-1.3-4.6-.1-3.9-2.8,9.1-2.7,12.4-13.1,10.6-21.9ZM881,108.3c-14.1-5.3-11.9-27.7,2.2-30.6,7.9-1.6,19.2.9,21.5,9.7,4,15.5-9.3,26.4-23.7,20.9Z" style="fill:#fd5513;"/><path d="M843.8,86.1c0-12.7-11.3-28.4-24.9-28.4h-23v56.7h23.9c12.8,0,24-16.4,24-28.4ZM819.9,110.8h-20.3v-49.5h19.4c.9,0,7.3,2.4,8.6,3.1,16.3,8.3,16.5,34,.6,43-1.5.9-6.9,3.5-8.3,3.5Z" style="fill:#fd5513;"/><path d="M595.9,213.5v-19.8h23.9c3.4,0,9.7-4.4,11.7-7.2,5.8-7.6,4.2-22.1-4.5-27.1-.8-.5-6-2.7-6.3-2.7h-28.4v56.7c0,.2,3.6.2,3.6,0ZM595.9,160.4h24.8c.2,0,3.8,1.6,4.4,1.9,8.1,4.9,8.3,19.3.9,24.9-.8.6-4.6,2.8-5.3,2.8h-24.8v-29.7Z" style="fill:#fd5613;"/><path d="M730.2,213.5v-56.7c-.6.1-3.6-.2-3.6,0v24.3c-1.6-.9-1.9-2.5-3.7-4-17-13.6-40.1,4.2-31.5,25.2,5.6,13.7,27,15.9,34.7,3.1,1.3,0-1.5,9.8,4.1,8.1ZM712.6,210.7c-23.5,3-26.3-32.2-5.1-34.8,23.8-2.9,25.7,32.2,5.1,34.8Z" style="fill:#fd5613;"/><path d="M1006,114.4v-39.6c-5.7-1.2-3.1,2.9-3.6,7.2-15.5-17.3-41.4-5.7-36.5,18.1,2.9,14.2,20.7,19.5,32,11.1,2.1-1.6,2.8-3.5,4.6-4.9.6,4.3-2.3,9.4,3.6,8.1ZM982.2,111.6c-18.1-2.5-18.5-34.1,2.8-34.7,23.6-.7,23.8,38.3-2.8,34.7Z" style="fill:#fd5614;"/><path d="M498.6,114.4v-39.6c-5.7-1.2-3.1,2.9-3.6,7.2-10.2-12.6-31.5-10.6-36,5.9-6.3,23.5,20.1,36.8,36,19.3.5,4.3-2.1,8.4,3.6,7.2ZM474.8,111.6c-17.9-2.4-18.3-34,2.9-34.8,23.7-.9,24.1,38.5-2.9,34.8Z" style="fill:#fd5614;"/><path d="M813.1,175.3c-9.3-5.1-22.8-2.6-27.7,7.3-12.2,24.6,17.7,42.7,35,22.8v8.1s2.7,0,2.7,0v-40.5h-2.7s0,8.1,0,8.1l-7.3-5.8ZM805.4,210.7c-23.2,3-25.9-31.9-5.1-34.8,8.4-1.2,17.9,4.1,19.1,12.9,1.4,10.4-2.6,20.5-14,21.9Z" style="fill:#fd5513;"/><path d="M598.2,73.9c-29.7-1.4-28.2,44.7,1.7,41.4,2.9-.3,14.1-4.7,14-7.6,0-.2-2.1-2.2-2.2-2.2-.3,0-2.6,2.8-3.8,3.4-12,7-28,1.9-27.3-13.4h36.1c1-12.1-6-21.1-18.4-21.7ZM580.6,92.8c-.4-21.2,33.1-21.2,32.4,0h-32.4Z" style="fill:#fd5513;"/><path d="M661.3,214.2c28.3,0,27.8-46.6-5.2-41-21.6,3.6-20.2,41,5.2,41ZM658.8,175.9c23.6-2.9,25.9,32.2,5.1,34.8-23.6,3-26.4-32.2-5.1-34.8Z" style="fill:#fd5613;"/><path d="M867.2,202.3c-.5-13.4-26.4-9.2-28.6-16.5-2.9-9.5,9.9-11,16.3-10,4.6.7,9,6.1,11.5,2-6-5-14.4-6-21.8-4.7-10.3,1.7-14.4,14.1-3.1,18.9,6,2.6,25.1,2.6,22.1,12.7-2.1,7.1-14.9,6.6-20.5,4.7-2.8-.9-7.2-4.9-7.7-4.9-2.5,0-1.2,3.6,1,5.2,8.7,6.3,31.4,6.5,30.9-7.4Z" style="fill:#fd5614;"/><path d="M568.9,113.9c1.5.6,2.9.6,4.5.5l-22.5-20.3,19.8-19.4c-1.5,0-3-.2-4.5.5-2.4,1.1-12.8,12.6-16.2,15.3-.9.7-1.1,1.7-2.7,1.3v-34.2h-2.7v56.7h2.7v-18.9c6.6,3.2,15.8,16,21.7,18.4Z" style="fill:#fd5512;"/><path d="M705.7,83.6c.4.7,2,6.6,2,7v23.9h2.7v-28.4c0-.7-2.8-6.3-3.6-7.2-7.1-8-22.1-5.8-28.4,2.3l-.4-6.3h-2.7v39.6h2.7v-23.9c0-.5,1.8-5.1,2.2-5.9,4.8-8.9,21.1-10.4,25.5-1.1Z" style="fill:#fd5513;"/><path d="M884.3,211c2.9,3.9,10.9,3.3,15,1.7,1.4-.5,2-.1,1.3-2.3-.8-2.2-4.7.4-6.8.5-3.6.2-8.5-1.9-8.5-5.9v-28.4h13.1c1.6,0,1.6-3.6,0-3.6h-13.1v-11.7c-6.4-1.6-2.4,10.5-3.6,11.7-1.3,1.3-10.3-2.9-8.1,3.6,1.4.3,7.8-.3,8.1,0,1,1,0,23.8,0,27.5s2.2,6.3,2.7,7Z" style="fill:#fd5816;"/><path d="M770.1,212.4c.8-.3,5.8-3.2,6-3.4.7-1-.9-2.7-2.2-2.7-1.2,0-6.1,3.8-9.2,4.3-25.3,4.2-27.4-35-3.4-35,5.8,0,9.8,4.2,11.8,4.5,4.4.7,1.1-3.7-2-5.2-9.8-4.8-23.2-1.6-28.1,8.6-8.8,18.2,8.6,36.4,27.2,28.9Z" style="fill:#fd5614;"/><path d="M945.1,113.6c4.5,3,10.2,1.3,14.9,0-1-6-1.3-2.4-5-1.8-2,.3-6.8.3-8.3-1.1-.2-.2-2-3.6-2-3.8v-29.3h13.5v-2.7h-13.5v-12.6c-6.5-1.6-2.3,11.4-3.6,12.6-.3.3-6.7-.3-8.1,0v2.7c.4.4,8.1-.4,8.1,0v29.3c0,1.1,2.8,5.9,4,6.8Z" style="fill:#fd5715;"/><path d="M648.6,110.8c-4.5.5-11.5,3.1-13.7-2.5-1.6-4.1-1.8-22.8-1.2-27.7.1-.9.4-3.1,1.4-3.1h13.1v-2.7h-13.1c-2.3,0-1.1-10.5-1.4-12.6h-2.7c-.5,2.6.9,10-.4,11.8-1.4,2-8.4,0-8.6,1.3-.8,4.7,7.8,1,9,2.2,1.1,1.1,0,26.8,0,31.1s5,6.1,7.9,6.5c3,.5,12-.1,9.7-4.3Z" style="fill:#fd5512;"/><path d="M529.7,77.4c2.7,0,5.1,1.9,5.4,1.9.8,0,1.6-2,1.3-3.1-.9-3-13-2.5-15.3,0l-6.3,5.8v-7.2s-2.7,0-2.7,0v39.6c0,.2,3.5.1,3.6,0,.9-.9,0-22.2,0-25.7,0-5.4,8.4-11.5,14-11.3Z" style="fill:#fd5816;"/><rect x="1019.5" y="57.7" width="2.7" height="56.7" style="fill:#fd5411;"/><path d="M853.7,74.8v39.6c0,.2,3.6.2,3.6,0v-39.6c-.6.1-3.6-.2-3.6,0Z" style="fill:#fd5f20;"/><path d="M919.5,74.8v39.6c0,.2,3.6.2,3.6,0v-39.6c-.6.1-3.6-.2-3.6,0Z" style="fill:#fd5f20;"/><path d="M658.1,74.8v39.6c0,.2,3.6.2,3.6,0v-39.6c-.6.1-3.6-.2-3.6,0Z" style="fill:#fd6021;"/><path d="M1045.6,136.4c-4.3,6,4.1,10.4,8,6.6,4.4-4.4-3.6-12.7-8-6.6Z" style="fill:#fd5817;"/><path d="M9.2,142.9c4.3-6-4.1-10.4-8-6.6-4.4,4.4,3.6,12.7,8,6.6Z" style="fill:#fd5817;"/><path d="M923.8,59.7c-3.4-3.4-7.2,2.8-4.3,4.8,2.8,2,7.2-1.8,4.3-4.8Z" style="fill:#fd5918;"/><path d="M858,59.7c-3.4-3.4-7.2,2.8-4.3,4.8,2.8,2,7.2-1.8,4.3-4.8Z" style="fill:#fd5918;"/><path d="M657.4,59.7c-3.4,3.3,2.8,7.2,4.8,4.3,2-2.8-1.8-7.2-4.8-4.3Z" style="fill:#fd5f20;"/></g></svg>